<?xml version="1.0" standalone="no"?>
<!DOCTYPE svg PUBLIC "-//W3C//DTD SVG 20010904//EN"
 "http://www.w3.org/TR/2001/REC-SVG-20010904/DTD/svg10.dtd">
<svg version="1.0" xmlns="http://www.w3.org/2000/svg"
 width="512.000000pt" height="512.000000pt" viewBox="0 0 512.000000 512.000000"
 preserveAspectRatio="xMidYMid meet">
<metadata>
Created by potrace 1.16, written by Peter Selinger 2001-2019
</metadata>
<g transform="translate(0.000000,512.000000) scale(0.100000,-0.100000)"
fill="#000000" stroke="none">
<path d="M525 5101 c-258 -74 -443 -262 -509 -518 -14 -55 -16 -262 -16 -2035
l1 -1973 23 -70 c60 -178 145 -294 281 -384 81 -53 122 -72 221 -101 69 -19
95 -20 712 -20 l641 1 40 72 c168 302 435 659 668 892 253 256 512 428 782
520 53 18 129 45 168 59 40 14 76 26 81 26 5 0 14 -17 20 -38 25 -82 111 -188
222 -274 l35 -27 -48 -49 c-26 -26 -47 -51 -47 -55 0 -4 297 -7 660 -7 l660 0
0 75 c0 41 -4 75 -8 75 -4 0 -29 -13 -55 -30 -26 -16 -52 -30 -57 -30 -5 0
-18 13 -30 30 -48 67 -481 462 -605 551 -25 18 -44 34 -42 36 3 3 187 -12 275
-22 32 -3 42 -1 42 10 0 16 -27 22 -155 30 -198 13 -388 44 -480 78 -170 64
-248 124 -305 237 -72 144 -79 197 -90 630 -5 206 -12 465 -16 576 l-7 201 79
6 c102 7 282 54 406 106 54 23 100 41 103 41 2 0 9 -18 15 -41 22 -80 150
-178 275 -209 110 -27 319 -9 537 46 53 13 99 24 102 24 2 0 7 -15 9 -32 2
-18 4 212 3 512 l-1 545 -31 86 c-32 90 -113 217 -176 275 -79 75 -195 140
-313 175 -57 18 -151 19 -2035 18 -1842 0 -1979 -2 -2035 -18z m4583 -1517
c-3 -19 -45 -34 -198 -69 -130 -31 -317 -43 -415 -26 -112 19 -107 29 11 24
128 -6 284 13 454 56 139 35 152 36 148 15z m-1218 -1636 c65 -37 208 -81 305
-93 56 -8 96 -31 205 -119 169 -135 530 -468 530 -487 0 -5 -94 -9 -219 -9
l-218 0 -79 57 c-43 31 -102 76 -130 100 -28 23 -55 43 -59 43 -17 0 52 -63
139 -129 l88 -66 -267 -3 -268 -2 -51 38 c-82 63 -155 142 -186 206 -17 33
-30 65 -30 73 0 7 -4 13 -9 13 -16 0 -19 93 -5 149 8 31 29 80 47 110 34 57
125 164 136 159 3 -2 35 -20 71 -40z"/>
<path d="M4614 3009 c-13 -15 -19 -36 -19 -71 0 -42 4 -53 28 -74 35 -30 39
-30 73 -1 54 47 29 167 -35 167 -16 0 -36 -9 -47 -21z"/>
<path d="M3962 3013 c-20 -8 -42 -59 -42 -98 0 -27 8 -44 29 -65 50 -51 101
-15 101 73 0 38 -5 53 -25 72 -24 25 -37 28 -63 18z"/>
<path d="M3790 1076 c0 -19 4 -78 9 -132 5 -55 15 -160 21 -234 6 -74 13 -145
15 -156 4 -17 -21 -45 -120 -134 -82 -74 -122 -117 -116 -123 6 -6 51 28 127
97 132 121 194 166 309 223 120 61 204 83 307 84 l88 0 0 29 c0 41 9 59 39 74
36 19 76 9 106 -26 29 -34 31 -57 10 -98 l-15 -29 120 -62 c66 -34 124 -67
130 -74 7 -9 7 -21 0 -39 -18 -47 -12 -102 13 -132 19 -22 34 -28 80 -32 50
-4 58 -2 82 22 14 14 30 26 36 26 13 0 46 78 71 169 18 67 20 97 16 315 -1
133 -7 247 -11 254 -6 9 -150 12 -663 12 l-654 0 0 -34z m1136 -633 c68 -50
70 -53 54 -84 -8 -14 -21 -19 -50 -19 -56 0 -88 15 -96 46 -6 25 11 104 22
104 4 0 35 -21 70 -47z"/>
<path d="M4285 367 c-106 -40 -155 -64 -155 -77 0 -15 9 -13 126 35 77 32 123
45 158 45 47 0 175 -38 275 -82 l46 -21 -88 -18 c-202 -41 -324 -100 -362
-176 -11 -23 -33 -48 -50 -56 l-30 -16 41 0 c39 -1 42 1 48 31 4 18 23 48 49
72 l42 40 5 -47 c8 -69 39 -97 106 -97 46 0 57 4 87 33 40 37 61 100 52 151
l-7 33 74 12 c40 7 114 15 163 18 l90 5 -45 -48 -45 -49 43 40 c24 22 52 51
62 65 l18 25 -100 -6 c-98 -7 -100 -7 -172 26 -106 49 -223 87 -286 91 -44 3
-73 -2 -145 -29z m323 -205 c6 -77 -45 -132 -122 -132 -19 0 -42 7 -50 16 -19
19 -21 84 -3 107 12 16 141 58 162 53 6 -1 11 -21 13 -44z"/>
</g>
</svg>
